<svg xmlns="http://www.w3.org/2000/svg" viewBox="0 0 32 32">
  <g fill="none" stroke="#2a6df4" stroke-width="1.8" stroke-linecap="round" stroke-linejoin="round">
    <path d="M 4.00,16.00 L 4.16,14.95 L 4.32,14.54 L 4.48,14.24 L 4.64,14.00 L 4.80,13.79 L 4.96,13.62 L 5.12,13.48 L 5.28,13.35 L 5.44,13.24 L 5.60,13.14 L 5.76,13.05 L 5.92,12.98 L 6.08,12.91 L 6.24,12.86 L 6.40,12.81 L 6.56,12.78 L 6.72,12.74 L 6.88,12.72 L 7.04,12.71 L 7.20,12.70 L 7.36,12.69 L 7.52,12.69 L 7.68,12.70 L 7.84,12.71 L 8.00,12.73 L 8.16,12.76 L 8.32,12.79 L 8.48,12.82 L 8.64,12.86 L 8.80,12.91 L 8.96,12.96 L 9.12,13.01 L 9.28,13.08 L 9.44,13.14 L 9.60,13.21 L 9.76,13.29 L 9.92,13.37 L 10.08,13.46 L 10.24,13.56 L 10.40,13.66 L 10.56,13.77 L 10.72,13.89 L 10.88,14.02 L 11.04,14.17 L 11.20,14.32 L 11.36,14.50 L 11.52,14.70 L 11.68,14.93 L 11.84,15.25 L 12.00,16.00 L 12.00,16.00 L 11.84,16.75 L 11.68,17.07 L 11.52,17.30 L 11.36,17.50 L 11.20,17.68 L 11.04,17.83 L 10.88,17.98 L 10.72,18.11 L 10.56,18.23 L 10.40,18.34 L 10.24,18.44 L 10.08,18.54 L 9.92,18.63 L 9.76,18.71 L 9.60,18.79 L 9.44,18.86 L 9.28,18.92 L 9.12,18.99 L 8.96,19.04 L 8.80,19.09 L 8.64,19.14 L 8.48,19.18 L 8.32,19.21 L 8.16,19.24 L 8.00,19.27 L 7.84,19.29 L 7.68,19.30 L 7.52,19.31 L 7.36,19.31 L 7.20,19.30 L 7.04,19.29 L 6.88,19.28 L 6.72,19.26 L 6.56,19.22 L 6.40,19.19 L 6.24,19.14 L 6.08,19.09 L 5.92,19.02 L 5.76,18.95 L 5.60,18.86 L 5.44,18.76 L 5.28,18.65 L 5.12,18.52 L 4.96,18.38 L 4.80,18.21 L 4.64,18.00 L 4.48,17.76 L 4.32,17.46 L 4.16,17.05 L 4.00,16.00 Z"/>
    <path d="M 29.92,0.00 L 29.88,0.06 L 29.84,0.13 L 29.80,0.19 L 29.76,0.25 L 29.72,0.31 L 29.68,0.37 L 29.64,0.44 L 29.60,0.50 L 29.56,0.56 L 29.52,0.62 L 29.48,0.68 L 29.44,0.75 L 29.40,0.81 L 29.36,0.87 L 29.32,0.93 L 29.28,0.99 L 29.24,1.05 L 29.20,1.12 L 29.16,1.18 L 29.12,1.24 L 29.08,1.30 L 29.04,1.36 L 29.00,1.42 L 28.96,1.48 L 28.92,1.54 L 28.88,1.61 L 28.84,1.67 L 28.80,1.73 L 28.76,1.79 L 28.72,1.85 L 28.68,1.91 L 28.64,1.97 L 28.60,2.03 L 28.56,2.09 L 28.52,2.15 L 28.48,2.21 L 28.44,2.27 L 28.40,2.33 L 28.36,2.40 L 28.32,2.46 L 28.28,2.52 L 28.24,2.58 L 28.20,2.64 L 28.16,2.70 L 28.12,2.76 L 28.08,2.82 L 28.04,2.88 L 28.00,2.94 L 27.96,3.00 L 27.92,3.06 L 27.88,3.12 L 27.84,3.18 L 27.80,3.23 L 27.76,3.29 L 27.72,3.35 L 27.68,3.41 L 27.64,3.47 L 27.60,3.53 L 27.56,3.59 L 27.52,3.65 L 27.48,3.71 L 27.44,3.77 L 27.40,3.83 L 27.36,3.89 L 27.32,3.95 L 27.28,4.01 L 27.24,4.06 L 27.20,4.12 L 27.16,4.18 L 27.12,4.24 L 27.08,4.30 L 27.04,4.36 L 27.00,4.42 L 26.96,4.48 L 26.92,4.53 L 26.88,4.59 L 26.84,4.65 L 26.80,4.71 L 26.76,4.77 L 26.72,4.83 L 26.68,4.88 L 26.64,4.94 L 26.60,5.00 L 26.56,5.06 L 26.52,5.12 L 26.48,5.17 L 26.44,5.23 L 26.40,5.29 L 26.36,5.35 L 26.32,5.41 L 26.28,5.46 L 26.24,5.52 L 26.20,5.58 L 26.16,5.64 L 26.12,5.69 L 26.08,5.75 L 26.04,5.81 L 26.00,5.87 L 25.96,5.92 L 25.92,5.98 L 25.88,6.04 L 25.84,6.10 L 25.80,6.15 L 25.76,6.21 L 25.72,6.27 L 25.68,6.33 L 25.64,6.38 L 25.60,6.44 L 25.56,6.50 L 25.52,6.55 L 25.48,6.61 L 25.44,6.67 L 25.40,6.72 L 25.36,6.78 L 25.32,6.84 L 25.28,6.90 L 25.24,6.95 L 25.20,7.01 L 25.16,7.07 L 25.12,7.12 L 25.08,7.18 L 25.04,7.24 L 25.00,7.29 L 24.96,7.35 L 24.92,7.40 L 24.88,7.46 L 24.84,7.52 L 24.80,7.57 L 24.76,7.63 L 24.72,7.69 L 24.68,7.74 L 24.64,7.80 L 24.60,7.86 L 24.56,7.91 L 24.52,7.97 L 24.48,8.02 L 24.44,8.08 L 24.40,8.14 L 24.36,8.19 L 24.32,8.25 L 24.28,8.30 L 24.24,8.36 L 24.20,8.42 L 24.16,8.47 L 24.12,8.53 L 24.08,8.59 L 24.04,8.64 L 24.00,8.70 L 23.96,8.75 L 23.92,8.81 L 23.88,8.86 L 23.84,8.92 L 23.80,8.98 L 23.76,9.03 L 23.72,9.09 L 23.68,9.14 L 23.64,9.20 L 23.60,9.26 L 23.56,9.31 L 23.52,9.37 L 23.48,9.42 L 23.44,9.48 L 23.40,9.54 L 23.36,9.59 L 23.32,9.65 L 23.28,9.70 L 23.24,9.76 L 23.20,9.82 L 23.16,9.87 L 23.12,9.93 L 23.08,9.99 L 23.04,10.04 L 23.00,10.10 L 22.96,10.15 L 22.92,10.21 L 22.88,10.27 L 22.84,10.32 L 22.80,10.38 L 22.76,10.44 L 22.72,10.49 L 22.68,10.55 L 22.64,10.61 L 22.60,10.66 L 22.56,10.72 L 22.52,10.78 L 22.48,10.83 L 22.44,10.89 L 22.40,10.95 L 22.36,11.01 L 22.32,11.06 L 22.28,11.12 L 22.24,11.18 L 22.20,11.24 L 22.16,11.29 L 22.12,11.35 L 22.08,11.41 L 22.04,11.47 L 22.00,11.53 L 21.96,11.59 L 21.92,11.65 L 21.88,11.70 L 21.84,11.76 L 21.80,11.82 L 21.76,11.88 L 21.72,11.94 L 21.68,12.00 L 21.64,12.06 L 21.60,12.12 L 21.56,12.19 L 21.52,12.25 L 21.48,12.31 L 21.44,12.37 L 21.40,12.43 L 21.36,12.50 L 21.32,12.56 L 21.28,12.62 L 21.24,12.69 L 21.20,12.75 L 21.16,12.82 L 21.12,12.88 L 21.08,12.95 L 21.04,13.02 L 21.00,13.08 L 20.96,13.15 L 20.92,13.22 L 20.88,13.29 L 20.84,13.36 L 20.80,13.44 L 20.76,13.51 L 20.72,13.59 L 20.68,13.66 L 20.64,13.74 L 20.60,13.82 L 20.56,13.90 L 20.52,13.98 L 20.48,14.07 L 20.44,14.16 L 20.40,14.25 L 20.36,14.35 L 20.32,14.45 L 20.28,14.55 L 20.24,14.66 L 20.20,14.79 L 20.16,14.92 L 20.12,15.07 L 20.08,15.24 L 20.04,15.46 L 20.00,16.00 L 20.00,16.00 L 20.04,16.54 L 20.08,16.76 L 20.12,16.93 L 20.16,17.08 L 20.20,17.21 L 20.24,17.34 L 20.28,17.45 L 20.32,17.55 L 20.36,17.65 L 20.40,17.75 L 20.44,17.84 L 20.48,17.93 L 20.52,18.02 L 20.56,18.10 L 20.60,18.18 L 20.64,18.26 L 20.68,18.34 L 20.72,18.41 L 20.76,18.49 L 20.80,18.56 L 20.84,18.64 L 20.88,18.71 L 20.92,18.78 L 20.96,18.85 L 21.00,18.92 L 21.04,18.98 L 21.08,19.05 L 21.12,19.12 L 21.16,19.18 L 21.20,19.25 L 21.24,19.31 L 21.28,19.38 L 21.32,19.44 L 21.36,19.50 L 21.40,19.57 L 21.44,19.63 L 21.48,19.69 L 21.52,19.75 L 21.56,19.81 L 21.60,19.88 L 21.64,19.94 L 21.68,20.00 L 21.72,20.06 L 21.76,20.12 L 21.80,20.18 L 21.84,20.24 L 21.88,20.30 L 21.92,20.35 L 21.96,20.41 L 22.00,20.47 L 22.04,20.53 L 22.08,20.59 L 22.12,20.65 L 22.16,20.71 L 22.20,20.76 L 22.24,20.82 L 22.28,20.88 L 22.32,20.94 L 22.36,20.99 L 22.40,21.05 L 22.44,21.11 L 22.48,21.17 L 22.52,21.22 L 22.56,21.28 L 22.60,21.34 L 22.64,21.39 L 22.68,21.45 L 22.72,21.51 L 22.76,21.56 L 22.80,21.62 L 22.84,21.68 L 22.88,21.73 L 22.92,21.79 L 22.96,21.85 L 23.00,21.90 L 23.04,21.96 L 23.08,22.01 L 23.12,22.07 L 23.16,22.13 L 23.20,22.18 L 23.24,22.24 L 23.28,22.30 L 23.32,22.35 L 23.36,22.41 L 23.40,22.46 L 23.44,22.52 L 23.48,22.58 L 23.52,22.63 L 23.56,22.69 L 23.60,22.74 L 23.64,22.80 L 23.68,22.86 L 23.72,22.91 L 23.76,22.97 L 23.80,23.02 L 23.84,23.08 L 23.88,23.14 L 23.92,23.19 L 23.96,23.25 L 24.00,23.30 L 24.04,23.36 L 24.08,23.41 L 24.12,23.47 L 24.16,23.53 L 24.20,23.58 L 24.24,23.64 L 24.28,23.70 L 24.32,23.75 L 24.36,23.81 L 24.40,23.86 L 24.44,23.92 L 24.48,23.98 L 24.52,24.03 L 24.56,24.09 L 24.60,24.14 L 24.64,24.20 L 24.68,24.26 L 24.72,24.31 L 24.76,24.37 L 24.80,24.43 L 24.84,24.48 L 24.88,24.54 L 24.92,24.60 L 24.96,24.65 L 25.00,24.71 L 25.04,24.76 L 25.08,24.82 L 25.12,24.88 L 25.16,24.93 L 25.20,24.99 L 25.24,25.05 L 25.28,25.10 L 25.32,25.16 L 25.36,25.22 L 25.40,25.28 L 25.44,25.33 L 25.48,25.39 L 25.52,25.45 L 25.56,25.50 L 25.60,25.56 L 25.64,25.62 L 25.68,25.67 L 25.72,25.73 L 25.76,25.79 L 25.80,25.85 L 25.84,25.90 L 25.88,25.96 L 25.92,26.02 L 25.96,26.08 L 26.00,26.13 L 26.04,26.19 L 26.08,26.25 L 26.12,26.31 L 26.16,26.36 L 26.20,26.42 L 26.24,26.48 L 26.28,26.54 L 26.32,26.59 L 26.36,26.65 L 26.40,26.71 L 26.44,26.77 L 26.48,26.83 L 26.52,26.88 L 26.56,26.94 L 26.60,27.00 L 26.64,27.06 L 26.68,27.12 L 26.72,27.17 L 26.76,27.23 L 26.80,27.29 L 26.84,27.35 L 26.88,27.41 L 26.92,27.47 L 26.96,27.52 L 27.00,27.58 L 27.04,27.64 L 27.08,27.70 L 27.12,27.76 L 27.16,27.82 L 27.20,27.88 L 27.24,27.94 L 27.28,27.99 L 27.32,28.05 L 27.36,28.11 L 27.40,28.17 L 27.44,28.23 L 27.48,28.29 L 27.52,28.35 L 27.56,28.41 L 27.60,28.47 L 27.64,28.53 L 27.68,28.59 L 27.72,28.65 L 27.76,28.71 L 27.80,28.77 L 27.84,28.82 L 27.88,28.88 L 27.92,28.94 L 27.96,29.00 L 28.00,29.06 L 28.04,29.12 L 28.08,29.18 L 28.12,29.24 L 28.16,29.30 L 28.20,29.36 L 28.24,29.42 L 28.28,29.48 L 28.32,29.54 L 28.36,29.60 L 28.40,29.67 L 28.44,29.73 L 28.48,29.79 L 28.52,29.85 L 28.56,29.91 L 28.60,29.97 L 28.64,30.03 L 28.68,30.09 L 28.72,30.15 L 28.76,30.21 L 28.80,30.27 L 28.84,30.33 L 28.88,30.39 L 28.92,30.46 L 28.96,30.52 L 29.00,30.58 L 29.04,30.64 L 29.08,30.70 L 29.12,30.76 L 29.16,30.82 L 29.20,30.88 L 29.24,30.95 L 29.28,31.01 L 29.32,31.07 L 29.36,31.13 L 29.40,31.19 L 29.44,31.25 L 29.48,31.32 L 29.52,31.38 L 29.56,31.44 L 29.60,31.50 L 29.64,31.56 L 29.68,31.63 L 29.72,31.69 L 29.76,31.75 L 29.80,31.81 L 29.84,31.87 L 29.88,31.94 L 29.92,32.00"/>
  </g>
</svg>
